<?xml version="1.0" encoding="UTF-8"?>
<svg width="28px" height="28px" viewBox="0 0 28 28" version="1.1" xmlns="http://www.w3.org/2000/svg" xmlns:xlink="http://www.w3.org/1999/xlink">
    <title>编组 13备份 3</title>
    <defs>
        <circle id="path-1" cx="14" cy="14" r="14"></circle>
        <filter x="-21.4%" y="-21.4%" width="142.9%" height="142.9%" filterUnits="objectBoundingBox" id="filter-2">
            <feGaussianBlur stdDeviation="6" in="SourceAlpha" result="shadowBlurInner1"></feGaussianBlur>
            <feOffset dx="0" dy="0" in="shadowBlurInner1" result="shadowOffsetInner1"></feOffset>
            <feComposite in="shadowOffsetInner1" in2="SourceAlpha" operator="arithmetic" k2="-1" k3="1" result="shadowInnerInner1"></feComposite>
            <feColorMatrix values="0 0 0 0 1   0 0 0 0 1   0 0 0 0 1  0 0 0 0.5 0" type="matrix" in="shadowInnerInner1"></feColorMatrix>
        </filter>
    </defs>
    <g id="H5拉新活动页" stroke="none" stroke-width="1" fill="none" fill-rule="evenodd">
        <g id="活动开始_已报名（新用户）" transform="translate(-341.000000, -97.000000)">
            <g id="编组-13备份-3" transform="translate(341.000000, 97.000000)">
                <g id="椭圆形" fill="black" fill-opacity="1">
                    <use filter="url(#filter-2)" xlink:href="#path-1"></use>
                </g>
                <g id="帮助说明备份" transform="translate(6.000000, 6.000000)">
                    <rect id="矩形" x="0" y="0" width="16" height="16"></rect>
                    <g id="编组-14" transform="translate(0.500000, 0.500000)" stroke="#FFFFFF">
                        <circle id="椭圆形" stroke-width="1.4" cx="7.5" cy="7.5" r="7.5"></circle>
                        <g id="？" transform="translate(5.100000, 3.000000)" fill="#FFFFFF" fill-rule="nonzero" stroke-width="0.2">
                            <path d="M2.51528384,0 C1.73973799,0 1.13187773,0.230769231 0.681222707,0.692307692 C0.220087336,1.15384615 0,1.79120879 0,2.6043956 L1.19475983,2.6043956 C1.19475983,2.13186813 1.27860262,1.76923077 1.45676856,1.51648352 C1.66637555,1.21978022 1.99126638,1.07692308 2.4419214,1.07692308 C2.79825328,1.07692308 3.08122271,1.17582418 3.28034934,1.38461538 C3.46899563,1.59340659 3.57379913,1.87912088 3.57379913,2.24175824 C3.57379913,2.51648352 3.47947598,2.78021978 3.29082969,3.02197802 C3.2069869,3.12087912 2.99737991,3.32967033 2.66200873,3.64835165 C2.31615721,3.96703297 2.07510917,4.27472527 1.93886463,4.57142857 C1.79213974,4.86813187 1.72925764,5.23076923 1.72925764,5.64835165 L1.72925764,5.8021978 L2.93449782,5.8021978 L2.93449782,5.64835165 C2.93449782,5.38461538 2.98689956,5.14285714 3.09170306,4.92307692 C3.1860262,4.72527473 3.32227074,4.53846154 3.51091703,4.38461538 C4.0139738,3.92307692 4.31790393,3.62637363 4.41222707,3.51648352 C4.66375546,3.16483516 4.8,2.71428571 4.8,2.16483516 C4.8,1.49450549 4.59039301,0.967032967 4.17117904,0.582417582 C3.75196507,0.186813187 3.19650655,0 2.51528384,0 Z M2.32663755,7.2 C2.09606987,7.2 1.90742358,7.27692308 1.76069869,7.43076923 C1.5930131,7.58461538 1.51965066,7.78241758 1.51965066,8.02417582 C1.51965066,8.26593407 1.5930131,8.46373626 1.76069869,8.61758242 C1.90742358,8.77142857 2.09606987,8.85934066 2.32663755,8.85934066 C2.55720524,8.85934066 2.74585153,8.78241758 2.91353712,8.62857143 C3.06026201,8.47472527 3.1441048,8.26593407 3.1441048,8.02417582 C3.1441048,7.78241758 3.06026201,7.58461538 2.91353712,7.43076923 C2.75633188,7.27692308 2.55720524,7.2 2.32663755,7.2 Z" id="形状"></path>
                        </g>
                    </g>
                </g>
            </g>
        </g>
    </g>
</svg>