<?xml version="1.0" encoding="UTF-8"?>
<svg width="8px" height="12px" viewBox="0 0 8 12" version="1.1" xmlns="http://www.w3.org/2000/svg" xmlns:xlink="http://www.w3.org/1999/xlink">
    <title>get_app_px_rounded</title>
    <g id="H5拉新活动页" stroke="none" stroke-width="1" fill="none" fill-rule="evenodd">
        <g id="活动开始_已报名（老用户）" transform="translate(-143.000000, -1145.000000)" fill="#FE5D00">
            <g id="编组-16" transform="translate(128.000000, 1134.000000)">
                <g id="get_app_px_rounded" transform="translate(15.000000, 11.000000)">
                    <path d="M6.6285389,5.78825573 L5.71425941,5.78825573 L5.71425941,0.564701016 C5.71425941,0.28235878 5.48571046,0 5.14283681,0 L2.85716319,0 C2.51430628,0 2.28574059,0.28235878 2.28574059,0.564701016 L2.28574059,5.78825573 L1.3714611,5.78825573 C0.857125518,5.78825573 0.62857657,6.40943843 0.971433474,6.74826235 L3.59998075,9.34589033 C3.8285297,9.57176743 4.17140334,9.57176743 4.40001925,9.34589033 L7.02856653,6.74826235 C7.37142343,6.40943843 7.14287448,5.78825573 6.6285389,5.78825573 Z M0,11.435299 C0,11.7176578 0.228548948,12 0.571422592,12 L7.42857741,12 C7.71429707,12 8,11.7176578 8,11.435299 C8,11.1529567 7.71429707,10.870598 7.42857741,10.870598 L0.571422592,10.870598 C0.228548948,10.870598 0,11.1529567 0,11.435299 Z" id="Fill-1"></path>
                </g>
            </g>
        </g>
    </g>
</svg>