<?xml version="1.0" encoding="UTF-8"?>
<svg width="13px" height="14px" viewBox="0 0 13 14" version="1.1" xmlns="http://www.w3.org/2000/svg" xmlns:xlink="http://www.w3.org/1999/xlink">
    <title>取消icon</title>
    <g id="H5拉新活动页" stroke="none" stroke-width="1" fill="none" fill-rule="evenodd">
        <g id="分享活动海报" transform="translate(-347.000000, -624.000000)" fill="#00195B">
            <g id="编组-2" transform="translate(0.000000, 606.000000)">
                <g id="取消icon" transform="translate(347.000000, 18.500000)">
                    <path d="M11.860626,12.6329055 C11.6781264,12.6329055 11.4956267,12.5632459 11.3563789,12.423998 L0.208914588,1.2766051 C-0.0696524706,0.998109412 -0.0696524706,0.546463922 0.208914588,0.267896863 C0.487410275,-0.0105988235 0.939055765,-0.0105988235 1.21755145,0.267896863 L12.3649444,11.4152898 C12.6435115,11.6939282 12.6435115,12.1455024 12.3649444,12.423998 C12.2256965,12.5632459 12.0431969,12.6329055 11.860626,12.6329055" id="Fill-1"></path>
                    <path d="M0.71323302,12.6329055 C0.530733412,12.6329055 0.348162431,12.5632459 0.208914588,12.423998 C-0.069581098,12.1455024 -0.069581098,11.6938569 0.208914588,11.4152898 L11.3563075,0.267968235 C11.6348746,-0.010527451 12.0864487,-0.010527451 12.3649444,0.267968235 C12.6435115,0.546463922 12.6435115,0.998109412 12.3649444,1.27667647 L1.21755145,12.423998 C1.07830361,12.5632459 0.895804,12.6329055 0.71323302,12.6329055" id="Fill-3"></path>
                </g>
            </g>
        </g>
    </g>
</svg>